<svg xmlns="http://www.w3.org/2000/svg" viewBox="0 0 64 64" width="64" height="64">
  <rect width="64" height="64" rx="11" fill="#041E42"/>
  <svg x="8" y="8" width="48" height="48" viewBox="26 24 268 268" preserveAspectRatio="xMidYMid meet">
    <polygon points="225.14 135.57 172.86 135.57 172.86 123.29 164.9 119.73 157.7 115.88 103.74 115.88 73.41 123.86 62.35 140.64 75.23 150.08 84.79 150.08 99.58 179.49 113.55 190.22 134.24 217.11 144.49 224.19 151.07 252.19 154.29 252.19 163.54 271.78 170.35 277.16 176.3 262.43 187.18 262.43 187.18 256.22 213.61 246.11 215.95 236 226.05 236 268.03 183.14 271.15 183.14 225.14 135.57" fill="#FFFFFF"/>
    <path d="M279.21,181.14l-50.43-52.14c-.38-.39-.9-.61-1.44-.61h-47.3v-8.46c0-.79-.46-1.5-1.19-1.83l-10.71-4.78-8.2-4.39c-.29-.16-.61-.24-.94-.24h-55.92c-.17,0-.34.02-.51.07l-31.37,8.26h-36.74v-3.29h.02c1.1,0,2-.9,2-2v-13.55h23.16c.41,0,.81-.13,1.15-.36l22.09-15.45c.34-.24.6-.58.74-.97l2.34-6.54,5.36-3.38,5.12,5.27c.38.39.9.61,1.44.61.05,0,.1,0,.16,0,.59-.05,1.14-.36,1.48-.84l7.11-10.13,14.4,1.94c.09.01.18.02.27.02.74,0,1.42-.41,1.77-1.07l6.34-12.1h7.75c.95,0,1.76-.66,1.96-1.59l2.78-13.33,241.89,2.44-.23.64c-.14.39-.15.82-.04,1.21l2.67,9.34-18.8,10.12c-.6.32-.99.92-1.05,1.6-.05.68.24,1.33.77,1.75l10.11,7.77c.2.15.43.27.67.34l14.68,4.19-1.24,9.94-10.92,8.87-15.25-5.81c-.23-.09-.47-.13-.71-.13-.29,0-.58.06-.85.19l-13.22,6.22c-.61.29-1.03.86-1.13,1.52-.1.67.15,1.33.65,1.78l6.17,5.49-1.87,11.23h-4.52c-.87,0-1.65.57-1.91,1.4-.26.83.04,1.74.76,2.24l7.77,5.44c.34.24.74.36,1.15.36.36,0,.71-.09,1.03-.29l6.75-4.05,5.16,3.09-3.39,6.77-33.99,6.04c-.44.08-.85.31-1.15.64l-35.94,40.53h-16.68Z" fill="#FFFFFF"/>
  </svg>
</svg>