<?xml version="1.0" encoding="UTF-8"?>
<svg id="Layer_1" data-name="Layer 1" xmlns="http://www.w3.org/2000/svg" viewBox="0 0 360 171.5">
  <defs>
    <style>
      .cls-1, .cls-2 {
        fill: #fff;
      }

      .cls-1, .cls-3 {
        fill-rule: evenodd;
      }

      .cls-4 {
        opacity: .5;
      }

      .cls-4, .cls-5, .cls-3, .cls-6 {
        fill: #ade25d;
      }

      .cls-5 {
        opacity: .25;
      }
    </style>
  </defs>
  <g>
    <g>
      <path class="cls-6" d="M206.72,63.18l-.59.03c-.13,0-.22-.1-.2-.24,1.58-10.31,6.86-21.01,15.45-29.57,6.06-6.04,12.95-10.21,19.85-12.43.12-.04.23.02.26.14l.12.59c.03.15-.08.32-.24.37-6.72,2.15-13.44,6.2-19.35,12.09-8.34,8.32-13.47,18.71-15,28.73-.02.15-.16.29-.3.29Z"/>
      <path class="cls-4" d="M219.01,30.58c-9.46,9.44-15.31,21.21-17.11,32.58-.02.15-.16.28-.3.29l-.62.03c-.13,0-.22-.1-.2-.24,0-.06.02-.12.03-.19,1.97-12.11,8.2-23.91,17.56-33.24,6.54-6.52,14.05-11.28,21.82-13.93.13-.04.24.02.26.14l.12.61c.03.15-.08.32-.23.37-7.42,2.51-14.82,7.06-21.34,13.57Z"/>
      <path class="cls-5" d="M215.57,26.5c-10.74,10.71-17.41,24.07-19.52,36.99-.02.15-.16.28-.3.29l-.62.03c-.08-.1-.12-.15-.2-.25,2.26-13.78,9.36-27.21,20-37.82,7.23-7.21,15.5-12.53,24.08-15.6.13-.05.24.01.27.14l.12.61c.03.14-.08.32-.23.37-8.22,2.93-16.38,8.03-23.61,15.24Z"/>
    </g>
    <g>
      <path class="cls-6" d="M339.87,106.59l.59-.03c.13,0,.22.1.2.24-1.58,10.31-6.86,21.01-15.45,29.57-6.06,6.04-12.95,10.21-19.85,12.43-.12.04-.23-.02-.26-.14l-.12-.59c-.03-.15.08-.32.24-.37,6.72-2.15,13.44-6.2,19.35-12.09,8.34-8.32,13.47-18.71,15-28.73.02-.15.16-.29.3-.29Z"/>
      <path class="cls-4" d="M327.59,139.19c9.46-9.44,15.31-21.21,17.11-32.58.02-.15.16-.28.3-.29l.62-.03c.13,0,.22.1.2.24,0,.06-.02.12-.03.19-1.97,12.11-8.2,23.91-17.56,33.24-6.54,6.52-14.05,11.28-21.82,13.93-.13.04-.24-.02-.26-.14l-.12-.61c-.03-.15.08-.32.23-.37,7.42-2.51,14.82-7.06,21.34-13.57Z"/>
      <path class="cls-5" d="M331.03,143.27c10.74-10.71,17.41-24.07,19.52-36.99.02-.15.16-.28.3-.29l.62-.03c.08.1.12.15.2.25-2.26,13.78-9.36,27.21-20,37.82-7.23,7.21-15.5,12.53-24.08,15.6-.13.05-.24-.01-.27-.14l-.12-.61c-.03-.14.08-.32.23-.37,8.22-2.93,16.38-8.03,23.61-15.24Z"/>
    </g>
    <g>
      <g>
        <g>
          <polygon class="cls-1" points="256.28 145.92 281.98 94.07 267.19 94.07 277.6 78.7 277.59 78.7 279.42 76 279.52 75.85 279.53 75.85 298.42 75.85 305.41 75.85 256.28 145.92"/>
          <polygon class="cls-1" points="292.65 98.44 276.89 120.62 264.17 139.69 264.17 139.69 274.03 126.3 292.65 98.44"/>
        </g>
        <g>
          <path class="cls-3" d="M331.1,73.29h4.59c-4.27-22.89-20.87-41.43-42.66-48.48l-2.02,4.08c20.26,6.31,35.83,23.33,40.09,44.39Z"/>
          <path class="cls-3" d="M332.27,84.83s0,.07,0,.11c0,32.36-26.33,58.69-58.69,58.69-4.02,0-7.95-.41-11.74-1.18l-2.8,3.99c4.67,1.1,9.53,1.7,14.54,1.7,34.9,0,63.2-28.29,63.2-63.2,0-2.05-.11-4.07-.3-6.07l-4.21,5.96Z"/>
        </g>
        <polygon class="cls-1" points="312.04 94.07 290.77 139.18 290.77 139.18 335.47 75.85 309.58 75.85 309.49 76 307.66 78.7 307.67 78.7 297.26 94.07 312.04 94.07"/>
      </g>
      <g>
        <polygon class="cls-3" points="269.28 91.19 269.27 91.19 279.68 75.81 264.9 75.81 290.6 23.96 241.47 94.03 248.45 94.03 267.35 94.03 267.35 94.03 267.45 93.89 269.28 91.19"/>
        <path class="cls-1" d="M273.58,21.75c-34.9,0-63.2,28.29-63.2,63.2,0,2.05.11,4.07.3,6.06l4.21-5.96s0-.07,0-.1c0-32.36,26.33-58.69,58.69-58.69,3.93,0,7.77.4,11.48,1.14l2.8-4c-4.59-1.06-9.37-1.64-14.29-1.64Z"/>
        <polygon class="cls-3" points="235.12 75.8 256.4 30.7 256.4 30.7 211.69 94.02 237.58 94.02 237.68 93.88 239.51 91.18 239.5 91.18 249.9 75.8 235.12 75.8"/>
      </g>
      <polygon class="cls-3" points="282.67 30.24 266.81 52.36 254.02 71.36 254.02 71.36 263.93 58.02 282.67 30.24"/>
    </g>
  </g>
  <g>
    <path class="cls-2" d="M66.36,105.48h21.11c2.58,0,4.82.27,6.74.82,1.91.55,3.5,1.3,4.76,2.26s2.2,2.1,2.82,3.42c.62,1.32.92,2.75.92,4.29,0,2.51-.79,4.71-2.38,6.6,1.82,1.08,3.18,2.48,4.07,4.2.89,1.72,1.34,3.67,1.34,5.86,0,1.84-.31,3.5-.92,4.98-.62,1.48-1.55,2.75-2.81,3.8-1.26,1.05-2.84,1.86-4.75,2.43-1.91.56-4.17.85-6.76.85h-24.14v-39.51ZM90.55,120.65c.69,0,1.37.02,2.02.08,1.13-1.08,1.69-2.31,1.69-3.69s-.56-2.54-1.68-3.32c-1.12-.78-2.76-1.17-4.92-1.17h-13.3v8.11h16.18ZM90.7,138.01c2.16,0,3.79-.46,4.92-1.39,1.12-.93,1.68-2.23,1.68-3.92s-.56-3-1.68-3.94c-1.12-.94-2.76-1.42-4.92-1.42h-16.33v10.67h16.33Z"/>
    <path class="cls-2" d="M114.95,105.48h8.01v21.76c0,1.79.24,3.38.73,4.77.49,1.39,1.22,2.57,2.19,3.53.97.96,2.17,1.69,3.6,2.19,1.43.5,3.1.75,5.01.75s3.55-.25,4.99-.75c1.44-.5,2.65-1.23,3.61-2.19.97-.96,1.7-2.14,2.19-3.53.49-1.39.73-2.98.73-4.77v-21.76h8.01v22.72c0,2.6-.44,4.95-1.31,7.08-.88,2.12-2.15,3.94-3.82,5.46-1.67,1.52-3.71,2.69-6.13,3.51-2.42.83-5.18,1.24-8.28,1.24s-5.86-.41-8.28-1.24c-2.42-.83-4.46-2-6.13-3.51-1.67-1.52-2.94-3.34-3.82-5.46-.88-2.12-1.31-4.48-1.31-7.08v-22.72Z"/>
    <path class="cls-2" d="M184.55,116.93l3.79-4.63h-23.74v-6.83h38.65l-22.12,27.78-3.94,4.9h24.82v6.83h-39.36l21.89-28.06Z"/>
    <path class="cls-2" d="M230.36,116.93l3.79-4.63h-23.74v-6.83h38.65l-22.12,27.78-3.94,4.9h24.82v6.83h-39.36l21.89-28.06Z"/>
  </g>
  <g>
    <path class="cls-2" d="M97.64,55.82c-4.69,0-8.36,1.32-11,3.96-2.64,2.64-3.96,6.31-3.96,11v20.24c0,.66.17,1.16.52,1.53.34.36.81.54,1.4.54.62,0,1.1-.18,1.45-.54.34-.36.52-.87.52-1.53v-11.65h22.11v11.65c0,.66.18,1.16.54,1.53s.84.54,1.42.54c.62,0,1.1-.18,1.45-.54.34-.36.52-.87.52-1.53v-20.24c0-4.66-1.33-8.32-3.99-10.98-2.66-2.66-6.32-3.99-10.97-3.99ZM108.66,76.16h-22.11v-5.54c0-3.73.95-6.57,2.85-8.54,1.9-1.97,4.64-2.95,8.23-2.95s6.28.99,8.18,2.98c1.9,1.99,2.85,4.82,2.85,8.52v5.54Z"/>
    <path class="cls-2" d="M143.43,57.53c-2.26-1.14-4.93-1.71-8-1.71s-5.75.57-8.02,1.71c-2.28,1.14-4.03,2.77-5.25,4.89-1.23,2.12-1.84,4.62-1.84,7.48v21.12c0,.66.17,1.16.52,1.53.34.36.81.54,1.4.54.62,0,1.1-.18,1.45-.54.34-.36.52-.87.52-1.53v-21.28c0-3.28,1.01-5.87,3.03-7.77,2.02-1.9,4.75-2.85,8.21-2.85s6.26.93,8.23,2.8c1.97,1.86,2.95,4.47,2.95,7.82v21.28c0,.66.18,1.16.54,1.53.36.36.84.54,1.42.54.62,0,1.1-.18,1.42-.54.33-.36.49-.87.49-1.53v-21.12c0-2.86-.61-5.36-1.84-7.48-1.23-2.12-2.97-3.75-5.23-4.89Z"/>
    <path class="cls-2" d="M187.87,64.93c-1.45-2.73-3.51-4.84-6.19-6.34-2.68-1.5-5.81-2.25-9.4-2.25h-7.25c-2.07,0-3.68.55-4.84,1.66-1.16,1.1-1.73,2.62-1.73,4.56v23.71c0,1.97.59,3.51,1.76,4.63,1.17,1.12,2.81,1.68,4.92,1.68h7.14c3.59,0,6.72-.74,9.4-2.23,2.67-1.48,4.74-3.58,6.19-6.29,1.45-2.71,2.17-5.89,2.17-9.55s-.73-6.85-2.17-9.58ZM182.35,85.48c-2.5,2.59-6.03,3.88-10.59,3.88h-6.68c-.83,0-1.49-.28-1.99-.83-.5-.55-.75-1.28-.75-2.18v-23.81c0-.9.25-1.62.75-2.17.5-.55,1.17-.83,1.99-.83h6.68c4.52,0,8.04,1.31,10.56,3.94,2.52,2.62,3.78,6.3,3.78,11.03s-1.25,8.39-3.75,10.97Z"/>
    <path class="cls-2" d="M33.21,73.97v-.1c1.63-.69,2.91-1.71,3.85-3.04.94-1.33,1.4-2.9,1.4-4.7,0-3.15-.97-5.59-2.91-7.33-1.94-1.73-4.66-2.6-8.16-2.6h-12.32c-2.08,0-3.7.55-4.86,1.66-.02.02-.04.05-.06.07-.03.02-.06.04-.08.06-1.16,1.1-1.73,2.62-1.73,4.56v23.71c0,1.97.59,3.51,1.76,4.63,1.17,1.12,2.81,1.68,4.92,1.68h12.79s0,0,0,0h.21c3.43,0,6.13-.94,8.11-2.83,1.97-1.89,2.96-4.46,2.96-7.72,0-1.91-.52-3.56-1.56-4.96-1.04-1.4-2.48-2.43-4.31-3.09ZM14.96,59.55h12.22c2.31,0,4.07.57,5.28,1.71,1.21,1.14,1.81,2.8,1.81,4.97,0,1.9-.6,3.42-1.81,4.56-.57.54-1.25.94-2.01,1.23-.79.26-1.67.4-2.65.4h-12.93c-1.38,0-2.5-1.12-2.5-2.5v-7.48c0-.87.26-1.59.78-2.16.09-.1.2-.19.3-.27.43-.3.93-.46,1.51-.46ZM15.12,89.3c-.8,0-1.46-.28-1.97-.83-.52-.55-.78-1.26-.78-2.13v-8.23c0-1.2.84-2.21,1.97-2.46h13.2c2.28,0,4.07.57,5.38,1.71,1.31,1.14,1.97,2.73,1.97,4.76,0,2.35-.62,4.13-1.86,5.36-1.21,1.19-2.96,1.79-5.24,1.82h-12.66Z"/>
    <path class="cls-2" d="M74.02,70.83c.94-1.33,1.4-2.9,1.4-4.7,0-3.15-.97-5.59-2.91-7.33-1.94-1.73-4.66-2.6-8.16-2.6h-12.32c-2.08,0-3.7.55-4.86,1.66-1.16,1.11-1.74,2.63-1.74,4.57v25.48c0,2.88.19,3.42.57,3.82.38.4.91.6,1.61.6.53,0,.97-.12,1.32-.35.01,0,.02.01.03.02,0-.02,0-.03,0-.05.1-.07.19-.14.27-.22.4-.4.59-.94.59-1.63v-13.49s.05-.06.07-.09h.03s0-.02,0-.04c.46-.55,1.15-.9,1.92-.9h12.29l6.8,15.02c.36.85.87,1.39,1.52,1.62.42.15.88.14,1.38-.02.61-.19,1.02-.58,1.22-1.17.16-.46.14-.88-.05-1.28l-6.87-14.73c2.34-.85,4.68-2.5,5.87-4.19ZM69.66,70.7c-1.21,1.14-2.84,1.72-4.89,1.72h-12.93c-.88,0-1.65-.46-2.1-1.14-.12-3.13-.24-6.26-.36-9.39.09-.62.33-1.16.74-1.6.52-.57,1.18-.86,1.97-.86h12.27c2.32,0,4.09.57,5.3,1.72,1.21,1.14,1.82,2.81,1.82,4.99,0,1.91-.61,3.43-1.82,4.57Z"/>
  </g>
</svg>