<?xml version="1.0" encoding="UTF-8"?>
<svg id="Layer_1" data-name="Layer 1" xmlns="http://www.w3.org/2000/svg" viewBox="0 0 500 159.15">
  <defs>
    <style>
      .cls-1 {
        fill: #00b0e0;
      }

      .cls-2 {
        fill: #083553;
      }
    </style>
  </defs>
  <g>
    <g>
      <path class="cls-1" d="M384.65,44.87c-3.02-1.27-6.45-3.17-9.67-5.37-1.78-1.2-3.5-2.5-5.09-3.84-1.73-1.46-3.36-2.97-4.8-4.51-3.31-3.52-5.76-7.14-7.29-10.75-1.8-4.25-2.32-8.49-1.53-12.59.19-.96.58-1.89,1.2-2.76.57-.79,1.27-1.51,2.11-2.13.82-.6,1.73-1.08,2.69-1.42,1.01-.36,2.02-.53,3.02-.53,1.25,0,2.4.27,3.45.82,1.13.6,2.08,1.49,2.81,2.68.57.91.98,2.08,1.29,3.65.26,1.29.41,2.69.57,4.05.15,1.37.33,2.8.58,4.01.51,2.4,1.23,4.87,2.14,7.34.84,2.25,1.85,4.56,3.04,6.88,1.94,3.81,4.37,7.75,7.43,12.06l3.28,4.61-5.21-2.2Z"/>
      <path class="cls-1" d="M452.86,146.44c-3.43,0-6.81-.99-9.02-1.82-2.71-1.01-5.25-2.35-6.95-3.69-5.25-4.1-9.9-11.54-14-18.11-.91-1.46-1.77-2.83-2.61-4.12-.45-.69-.93-1.48-1.49-2.38-1.89-3.04-4.46-7.19-7.24-10.5-1.48-1.75-2.86-3.1-4.13-4.03-1.32-.96-2.52-1.44-3.55-1.44-.15,0-.31,0-.46.03-.79.12-1.36.45-1.78,1.06-.93,1.3-1.23,3.88-.93,7.6.31,3.6,1.11,7.77,1.92,11.8.58,2.92,1.11,5.68,1.46,8.15.39,2.92.45,4.97.14,6.5-.62,3.05-2.14,5.59-4.39,7.31-1.05.79-2.21,1.41-3.5,1.82-1.23.39-2.52.58-3.84.58-1.53,0-3.05-.26-4.51-.77-1.49-.53-2.86-1.3-4.07-2.32-1.27-1.06-2.32-2.35-3.1-3.81-.84-1.56-1.37-3.31-1.6-5.2-.27-2.44-.26-4.84.03-7.31.26-2.2.75-4.39,1.48-6.74,1.34-4.29,3.31-8.35,5.2-12.28l.15-.31c1.36-2.81,3.19-5.51,4.96-8.11,1.46-2.14,2.83-4.17,3.95-6.23,1.2-2.2,1.89-4.13,2.14-5.9.29-2.11.12-4.08-.55-5.88-.6-1.66-1.63-3.19-3.02-4.55-1.32-1.29-2.97-2.38-4.87-3.28-1.84-.86-3.83-1.48-5.92-1.84-1.39-.24-3.02-.36-4.97-.36s-4.05.12-6.23.24h-.12c-2.09.12-4.48.26-6.81.26-1.27,0-2.44-.03-3.53-.12-5.16-.38-12.59-1.39-18.63-4.13-2.95-1.34-5.3-2.98-7-4.89-1.96-2.2-3.07-4.73-3.31-7.56-.36-4.22.58-7.56,2.8-9.97,2.5-2.71,6.5-4.1,11.92-4.1,5.8,0,11.96,1.58,16.09,2.92,4.91,1.58,9.79,3.7,13.09,5.71.46.27,1.11.75,2.02,1.39,1.9,1.36,4.79,3.41,7.86,5.11,3.52,1.94,6.42,2.93,8.61,2.93,1.22,0,2.18-.31,2.93-.93.87-.72,1.53-1.94,1.92-3.6,1.17-4.91-.58-7.7-2.59-10.94-.84-1.34-1.7-2.73-2.35-4.29-.98-2.32-1.58-4.84-1.72-7.12-.15-2.57.29-4.72,1.29-6.21.5-.74,1.11-1.32,1.85-1.73.77-.41,1.65-.63,2.59-.63h.36c1.48.09,2.73.65,3.69,1.72.79.86,1.37,2.02,1.78,3.53.7,2.54.84,5.75.98,9.13.15,3.7.33,7.53,1.25,10.31.45,1.34,1.03,2.3,1.77,2.93.79.67,1.8,1.01,3.09,1.01h0c.36,0,.74-.03,1.13-.07.99-.12,1.73-.57,2.35-1.37.63-.82,1.13-2.06,1.48-3.67.7-3.31.72-7.84.72-12.21,0-4.82,0-9.79.93-13.67.53-2.25,1.32-3.95,2.4-5.21,1.3-1.51,3.02-2.35,5.11-2.5.26,0,.51-.03.77-.03,1.29,0,2.44.24,3.43.7.98.45,1.8,1.11,2.47,1.99,1.34,1.75,1.97,4.29,1.89,7.55-.07,3.04-.74,6.07-1.29,8.08-.91,3.31-2.37,6.48-3.38,8.58-.39.82-.82,1.65-1.22,2.45-1.84,3.65-3.74,7.43-4.44,11.37-.19,1.06-.26,2.13-.21,3.17.05,1.08.24,2.11.57,3.04.33.98.79,1.73,1.36,2.26.81.74,1.54,1.06,2.49,1.06.43,0,.89-.07,1.42-.19,2.95-.7,5.11-1.66,7.03-3.12,2.09-1.6,3.86-3.65,5.33-5.45.69-.84,1.46-2.04,2.28-3.31,1.44-2.23,3.07-4.73,5.09-6.78,1.15-1.17,2.3-2.02,3.5-2.66,1.41-.74,2.9-1.1,4.41-1.1s3.02.36,4.56,1.08c2.86,1.32,4.6,3.67,4.99,6.78.21,1.54.07,3.26-.38,5.11-.39,1.6-.99,3.24-1.84,4.91-1.48,2.98-3.48,5.73-5.23,7.19-1.97,1.63-6.17,3.21-11.51,5.21-5.04,1.9-10.75,4.05-15.01,6.5-2.18,1.25-3.79,2.49-4.79,3.67-.96,1.13-1.34,2.2-1.17,3.26.17.99.57,1.7,1.22,2.13s1.6.65,2.81.65c1.48,0,3.31-.31,5.57-.94,2.23-.62,4.6-1.48,6.42-2.14.7-.26,1.39-.53,2.06-.77,4.1-1.56,6.71-2.52,8.46-2.52.26,0,.48.02.7.05,1.39.26,2.68.82,3.79,1.7,1.05.81,1.9,1.84,2.56,3.05.77,1.42,1.23,3.07,1.32,4.75.09,1.73-.21,3.46-.87,5.03-.53,1.25-1.32,2.32-2.35,3.17-.93.75-2.06,1.37-3.4,1.82-2.09.7-4.72,1.03-8.25,1.03-1.99,0-4.05-.1-6.04-.19h-.03c-2.02-.1-3.93-.19-5.76-.19-3.16,0-5.35.29-6.95.91-.84.33-1.48.74-1.96,1.25-.5.53-.82,1.18-.99,2.01-.27,1.29-.38,2.49-.29,3.57.07.99.31,1.92.69,2.74.7,1.54,1.9,2.86,3.7,4.03,3.57,2.32,8.8,3.55,13.41,4.65,2.18.51,4.24,1.01,6.04,1.58,3.07.98,6.5,2.69,9.18,4.58,1.65,1.17,3.04,2.42,4.1,3.69,1.27,1.51,2.11,3.09,2.49,4.67s.29,3.16-.24,4.7c-.55,1.6-1.61,3.17-3.12,4.65-1.01.99-2.26,1.73-3.72,2.2-1.27.41-2.71.62-4.27.62l-.05.09Z"/>
      <path class="cls-1" d="M345.68,127.87c-.27,0-.55,0-.84-.03-1.36-.1-2.57-.5-3.62-1.15-.98-.62-1.78-1.46-2.42-2.52-.74-1.25-1.23-2.8-1.48-4.61-.21-1.54-.21-3.24-.03-5.09.31-3.17,1.15-6.55,2.26-9.06,1.18-2.64,3.05-5.3,5.56-7.89,2.18-2.26,4.85-4.49,7.94-6.6,2.71-1.87,5.68-3.62,8.83-5.2,2.8-1.41,5.66-2.64,8.28-3.57l4.43-1.56.21-.07c-9.47,7.19-12.95,18.68-15.27,27.89-.53,2.14-1.1,4.34-1.77,6.5-.77,2.49-1.58,4.49-2.44,6.14-1.11,2.11-2.35,3.69-3.79,4.8-1.7,1.32-3.67,2.01-5.85,2.01l-.02.02Z"/>
      <path class="cls-1" d="M414.2,158.18c-1.97,0-3.91-.51-5.44-1.42-.84-.51-1.54-1.13-2.09-1.84-.6-.79-.99-1.66-1.17-2.62-.36-1.89-.1-3.74.77-5.64.72-1.58,1.78-3.04,2.83-4.44,1.58-2.16,3.02-4.68,3.38-7.43.19-1.44.03-2.86-.33-4.27-.1-.38-.74-2.73-1.3-2.66,3.77-.5,7.82,2.08,9.97,5.01.86,1.18,1.61,2.52,2.21,4.01.58,1.42,1.01,2.93,1.3,4.49.27,1.51.41,3.02.39,4.49-.02,1.53-.21,2.97-.55,4.29-.77,3.02-2.33,5.3-4.49,6.6-1.58.94-3.48,1.44-5.49,1.44v-.02Z"/>
      <path class="cls-1" d="M485.59,53.46c-.46,0-.94-.03-1.42-.09-2.83-.31-5.25-1.78-7.41-4.49-1.78-2.25-3.24-5.15-4.63-7.94-1.41-2.81-2.86-5.73-4.67-7.99-.93-1.17-1.85-2.06-2.86-2.74-4.43-3.04-9.06-3.24-14.34-1.94-.22.05-2.09.67-2.23.86.98-1.39,2.56-2.57,3.91-3.6,4.68-3.53,10.26-5.11,16.09-5.11,3.12,0,6.31.43,9.47,1.27,3.09.82,5.99,1.99,8.63,3.48,5.71,3.24,9.42,7.6,10.45,12.28.51,2.33.57,4.58.15,6.66-.39,2.01-1.2,3.79-2.4,5.28-1.05,1.3-2.33,2.32-3.84,3.04-1.51.7-3.16,1.06-4.89,1.06v-.02Z"/>
    </g>
    <path class="cls-1" d="M478.61,138.78c-2.25,0-4.2-1.2-5.51-3.4-.91-1.53-1.53-3.17-1.92-5.08-.33-1.63-.43-3.22-.55-4.77-.15-2.28-.31-4.44-1.13-6.43-.43-1.05-.99-1.97-1.77-2.85-.87-1.01-1.99-1.94-3.4-2.81l-3.14-1.99c5.4-1.42,10.7-1.94,15.88.55,2.62,1.27,4.99,3.05,6.84,5.18,3.09,3.57,4.48,7.75,3.91,11.82-.36,2.59-1.51,5.03-3.24,6.88-.84.89-1.77,1.61-2.76,2.11-1.06.55-2.16.82-3.24.82l.02-.03Z"/>
  </g>
  <g>
    <path class="cls-2" d="M44.27,90.18c0,4.12-1.82,7.56-5.45,10.31-3.64,2.74-8.4,4.12-14.29,4.12-3.95,0-7.8-.65-11.56-1.96l-5.27-2.52c-1.56-.87-3.14-1.99-4.7-3.36.63-1.99,1.7-3.58,3.19-4.77l2.54-1.41c.38-.19,1.01-.41,1.92-.7.91-.27,1.61-.48,2.11-.6v.84c0,2.49,1.06,4.51,3.19,6.11,2.13,1.58,4.8,2.37,7.99,2.37,2.5,0,4.63-.58,6.4-1.78,1.51-1.11,2.35-2.71,2.54-4.79,0-2.62-2.8-6.16-8.37-10.58l-.27-.19-3.1-2.44c-9.78-7.62-14.67-13.62-14.67-17.99,0-3.62,1.48-6.52,4.43-8.71,2.95-2.18,6.78-3.28,11.48-3.28,1.94,0,4.36.21,7.24.62,2.88.41,5.35.62,7.43.62l2.62-.19,2.62-.57c-.63,3.07-1.56,5.15-2.81,6.21-1.25,1.06-3.14,1.6-5.64,1.6l-2.26-.09-3.48-.53-5.08-.62c-1.7,0-3.1.38-4.24,1.13-.94.87-1.41,1.9-1.41,3.09,0,2.13,2.98,5.21,8.94,9.28l3.86,2.71c1.25.94,2.76,2.13,4.51,3.57.75.62,1.53,1.25,2.35,1.87,1.82,1.63,3.19,3.09,4.13,4.41,2.08,2.62,3.1,5.37,3.1,8.25"/>
    <path class="cls-2" d="M109.25,75.84c0,8.78-2.11,15.68-6.35,20.69-4.24,5.01-10.05,7.53-17.44,7.53-3.45,0-6.54-.55-9.26-1.65s-5.16-2.68-7.29-4.75v11.48c0,3.07.45,5.04,1.32,5.92.63.62,1.32,1.08,2.08,1.36.75.27,1.63.43,2.64.43-.63,2.32-1.54,3.89-2.73,4.7-.99.81-2.85,1.22-5.54,1.22h-11.85l1.11-2.73.91-2.92.41-3v-55.66c0-1.06-.03-1.89-.09-2.45-.07-.57-.19-1.48-.38-2.73-.38-1.56-.87-2.92-1.51-4.05l1.13-.09h1.61c3.89,0,6.62.5,8.22,1.51,1.78.82,2.68,2.32,2.68,4.51v.57c1.99-2.38,4.39-4.17,7.2-5.35s5.9-1.78,9.26-1.78c7.17,0,12.95,2.47,17.31,7.43,4.37,4.96,6.55,11.56,6.55,19.85M96.26,74.44c0-5.83-1.22-10.48-3.67-13.96s-5.76-5.21-9.97-5.21-7.53,1.61-10.02,4.84c-2.47,3.22-3.7,7.53-3.7,12.93v5.92c0,5.52,1.22,9.97,3.67,13.34,2.44,3.38,5.69,5.08,9.78,5.08,4.39,0,7.8-1.97,10.24-5.92,2.45-3.95,3.67-9.62,3.67-17.02"/>
    <path class="cls-2" d="M142.06,97.18c-.82,2.42-1.9,4.08-3.24,5.01-1.36.93-3.31,1.39-5.88,1.39h-11.1l1.03-1.89.75-3.1c.31-1.56.46-3.38.46-5.45v-50.21c0-2.69-.41-4.55-1.22-5.54-.5-.57-1.06-.99-1.7-1.27-.63-.27-1.6-.43-2.92-.43.94-2.59,2.01-4.24,3.19-4.91,1.25-.86,3.19-1.3,5.83-1.3h11.18l-.84,1.78-.94,3.19c-.26,1.18-.39,2.25-.43,3.19-.03.94-.05,1.68-.05,2.25v49.97c0,2.69.41,4.56,1.22,5.63,1.06,1.13,2.61,1.68,4.61,1.68"/>
    <path class="cls-2" d="M204.85,97.47c-.87,2.32-1.7,3.84-2.44,4.56-.75.72-2.04,1.23-3.86,1.56h-.57l-1.03.09h-3.76l-1.97.24-3.38.7.38-2.54v-4.13c-2.13,2.13-4.58,3.81-7.34,5.03-2.81,1.1-5.9,1.65-9.21,1.65-6.02,0-10.91-1.87-14.67-5.59-3.76-3.72-5.64-8.51-5.64-14.34s1.97-10.81,5.92-14.39c3.95-3.57,9.25-5.35,15.88-5.35,2.88,0,5.54.53,7.99,1.6,2.38.94,4.55,2.42,6.48,4.43v-1.03l.27-1.7c0-4.58-1.37-7.98-4.12-10.21s-6.95-3.34-12.62-3.34h-3.41l-4.44.39-6.91,1.49c1.32-3.26,2.98-5.4,5.03-6.43,2.04-1.03,6.12-1.54,12.26-1.54,9.02,0,15.54,1.82,19.55,5.45,4.01,3.64,6.02,9.59,6.02,17.86v18.8c0,2.88.41,4.73,1.22,5.54.81.82,2.26,1.22,4.32,1.22M187.94,84.21c0-3.89-1.1-6.98-3.29-9.31-2.01-2.26-4.89-3.38-8.64-3.38s-6.59,1.17-8.83,3.53c-2.26,2.35-3.38,5.47-3.38,9.35s1.17,7.17,3.53,9.69c2.35,2.5,5.28,3.76,8.8,3.76s6.43-1.18,8.61-3.57c2.16-2.38,3.24-5.73,3.24-10.05"/>
    <path class="cls-2" d="M253.19,90.18c0,4.12-1.82,7.56-5.45,10.31-3.64,2.74-8.4,4.12-14.29,4.12-3.95,0-7.8-.65-11.56-1.96l-5.27-2.52c-1.56-.87-3.14-1.99-4.7-3.36.63-1.99,1.7-3.58,3.19-4.77l2.54-1.41c.38-.19,1.01-.41,1.92-.7.91-.27,1.61-.48,2.11-.6v.84c0,2.49,1.06,4.51,3.19,6.11,2.13,1.58,4.8,2.37,7.99,2.37,2.5,0,4.63-.58,6.4-1.78,1.51-1.11,2.35-2.71,2.54-4.79,0-2.62-2.8-6.16-8.37-10.58l-.27-.19-3.1-2.44c-9.78-7.62-14.67-13.62-14.67-17.99,0-3.62,1.48-6.52,4.43-8.71,2.95-2.18,6.78-3.28,11.48-3.28,1.94,0,4.36.21,7.24.62,2.88.41,5.35.62,7.43.62l2.64-.19,2.62-.57c-.63,3.07-1.56,5.15-2.81,6.21s-3.14,1.6-5.64,1.6l-2.26-.09-3.48-.53-5.08-.62c-1.7,0-3.1.38-4.24,1.13-.94.87-1.41,1.9-1.41,3.09,0,2.13,2.98,5.21,8.94,9.28l3.86,2.71c1.25.94,2.76,2.13,4.51,3.57.75.62,1.53,1.25,2.35,1.87,1.82,1.63,3.19,3.09,4.13,4.41,2.08,2.62,3.1,5.37,3.1,8.25"/>
    <path class="cls-2" d="M318.44,97.18c-.75,2.49-1.75,4.17-3,5.06-1.25.89-3.33,1.34-6.21,1.34h-11.18c.94-1.44,1.66-3.1,2.13-4.99l.41-2.81v-28.58c0-4.08-.87-7.08-2.64-9.02-1.63-2.01-4.2-3-7.7-3-3.89,0-6.78,1.13-8.64,3.38-1.89,2.26-2.81,5.61-2.81,10.05v21.34c0,2.45.45,4.29,1.32,5.54.99,1.18,2.57,1.78,4.7,1.78-.94,2.5-2.02,4.19-3.24,5.03s-3.21,1.27-5.97,1.27h-11.1c.82-1.32,1.42-2.85,1.84-4.61l.51-2.81v-53.21c0-2.45-.46-4.29-1.41-5.54-1.06-1.13-2.61-1.7-4.61-1.7.82-2.28,1.87-3.89,3.16-4.82,1.29-.93,3.05-1.39,5.32-1.39h11.85c-.75,1.3-1.32,2.81-1.7,4.49-.45,1.56-.65,3.52-.65,5.9v14.63c1.82-1.94,4.07-3.45,6.72-4.51,2.66-1.06,5.37-1.6,8.13-1.6,6.71,0,11.54,1.68,14.53,5.08,2.98,3.38,4.46,8.89,4.46,16.52v20.36c0,2.69.41,4.51,1.22,5.44.81.94,2.35,1.41,4.61,1.41"/>
    <path class="cls-2" d="M106.62,129.67c0,3.69-.98,6.6-2.92,8.7-1.94,2.09-4.6,3.14-7.96,3.14s-6.04-1.05-7.94-3.12c-.98-1.06-1.72-2.3-2.2-3.72-.48-1.42-.74-3.09-.74-4.99,0-3.72.96-6.62,2.9-8.71,1.94-2.09,4.6-3.12,7.98-3.12s6,1.03,7.96,3.1c1.94,2.08,2.92,4.99,2.92,8.73M101.03,129.67c0-3-.45-5.27-1.34-6.76s-2.21-2.23-3.95-2.23-3.02.77-3.91,2.32c-.91,1.54-1.36,3.77-1.36,6.67s.45,5.25,1.36,6.72c.91,1.48,2.21,2.21,3.91,2.21s3.05-.75,3.98-2.26c.41-.74.75-1.68.98-2.81.1-.58.19-1.17.24-1.78.05-.6.09-1.3.09-2.09"/>
    <path class="cls-2" d="M147.56,138.42c-.34,1.03-.77,1.73-1.3,2.11-.53.38-1.39.55-2.57.55h-4.56c.29-.58.55-1.27.75-2.06.15-.77.24-1.58.24-2.42v-10.87c0-1.77-.34-3.05-1.01-3.83-.67-.79-1.7-1.17-3.07-1.17-1.56,0-2.74.45-3.53,1.36-.72.93-1.06,2.33-1.06,4.25v10.36c.05.45.21.79.43,1.03.39.39,1.05.63,1.94.72-.36,1.06-.79,1.77-1.25,2.13-.46.36-1.27.53-2.4.53h-4.63c.33-.55.55-1.22.72-1.99.15-.77.24-1.58.24-2.42v-10.94c0-1.77-.33-3.04-.99-3.77-.63-.82-1.65-1.23-3.05-1.23-1.61,0-2.8.46-3.55,1.37-.75.91-1.13,2.32-1.13,4.22v8.99c0,1.17.19,1.97.58,2.42.38.45,1.03.67,1.92.67-.39,1.08-.86,1.8-1.37,2.16s-1.32.55-2.44.55h-4.56l.43-.84.34-.99.17-1.23v-14.53c0-.93-.15-1.58-.48-1.94l-.48-.31c-.38-.15-.84-.24-1.42-.24.31-1.11.69-1.85,1.13-2.2.43-.36,1.13-.53,2.09-.53h1.11l1.42-.1,1.27-.34-.21,2.9c.82-.98,1.8-1.7,2.93-2.14,1.01-.5,2.23-.75,3.69-.75s2.71.26,3.88.79c1.15.53,2.06,1.3,2.71,2.33.77-.94,1.78-1.72,3.04-2.28,1.25-.57,2.59-.86,3.98-.86,2.64,0,4.58.7,5.8,2.11s1.82,3.67,1.82,6.79v8.82c0,1.11.19,1.85.55,2.21.29.34.93.57,1.9.67"/>
    <path class="cls-2" d="M175.3,138.38c-.34,1.13-.74,1.85-1.18,2.2s-1.2.5-2.26.5h-5.11c.34-.55.6-1.22.75-1.97.15-.75.24-1.6.24-2.52v-10.87c0-1.72-.36-3-1.06-3.83-.72-.84-1.8-1.25-3.26-1.25-1.65,0-2.85.46-3.64,1.39-.77.93-1.17,2.35-1.17,4.29v9.01c0,1.08.17,1.89.51,2.38.21.21.48.38.79.51.33.14.7.21,1.15.21-.38,1.03-.79,1.73-1.25,2.11-.46.38-1.22.55-2.25.55h-5.08c.29-.48.53-1.13.72-1.94l.15-.75.15-1.7v-13.17c0-.89-.15-1.54-.48-1.94l-.48-.31c-.38-.15-.84-.24-1.42-.24.29-1.08.67-1.82,1.11-2.18.45-.38,1.22-.55,2.3-.55h.79l1.54-.1,1.48-.34-.27,1.15v1.66c.82-.93,1.78-1.63,2.92-2.11,1.13-.48,2.44-.72,3.95-.72,2.8,0,4.82.74,6.05,2.2,1.23,1.48,1.85,3.76,1.85,6.88v8.59c0,1.18.17,1.94.51,2.26.34.43.99.63,1.94.63"/>
    <path class="cls-2" d="M188.71,138.38c-.38,1.05-.79,1.77-1.27,2.18-.5.34-1.3.51-2.42.51h-4.84l.45-.79.31-1.3c.14-.67.21-1.42.21-2.3v-12.62c0-1.13-.19-1.92-.55-2.33-.34-.5-.98-.75-1.9-.75.43-1.11.87-1.84,1.36-2.16s1.2-.5,2.18-.5h4.99l-.36.75-.39,1.34c-.1.5-.17.94-.17,1.34s-.02.72-.02.94v12.59c0,1.13.17,1.92.51,2.37.45.48,1.1.72,1.94.72M188.03,110.29l-1.06,2.66c-.24.53-.62.94-1.15,1.23-.53.24-1.23.36-2.11.36h-3.33l1.15-2.66c.19-.5.55-.89,1.1-1.17.55-.27,1.27-.41,2.16-.41h3.26l-.02-.02Z"/>
    <path class="cls-2" d="M229.85,138.42c-.34,1.03-.79,1.73-1.3,2.11-.53.38-1.39.55-2.57.55h-4.56c.29-.58.55-1.27.75-2.06.15-.77.24-1.58.24-2.42v-10.87c0-1.77-.34-3.05-1.01-3.83-.67-.79-1.7-1.17-3.07-1.17-1.56,0-2.74.45-3.53,1.36-.72.93-1.06,2.33-1.06,4.25v10.36c.05.45.21.79.43,1.03.39.39,1.05.63,1.94.72-.36,1.06-.79,1.77-1.25,2.13-.46.36-1.27.53-2.4.53h-4.63c.31-.55.55-1.22.72-1.99.15-.77.24-1.58.24-2.42v-10.94c0-1.77-.33-3.04-.99-3.77-.63-.82-1.65-1.23-3.05-1.23-1.61,0-2.8.46-3.55,1.37-.75.91-1.13,2.32-1.13,4.22v8.99c0,1.17.19,1.97.58,2.42.38.45,1.03.67,1.92.67-.39,1.08-.86,1.8-1.37,2.16-.51.36-1.32.55-2.44.55h-4.56l.43-.84.34-.99.17-1.23v-14.53c0-.93-.15-1.58-.48-1.94l-.48-.31c-.38-.15-.84-.24-1.42-.24.33-1.11.7-1.85,1.13-2.2.43-.36,1.13-.53,2.08-.53h1.11l1.42-.1,1.27-.34-.21,2.9c.82-.98,1.8-1.7,2.93-2.14,1.01-.5,2.23-.75,3.69-.75s2.71.26,3.88.79c1.15.53,2.06,1.3,2.71,2.33.77-.94,1.78-1.72,3.04-2.28s2.59-.86,3.98-.86c2.64,0,4.58.7,5.8,2.11s1.82,3.67,1.82,6.79v8.82c0,1.11.19,1.85.55,2.21.29.34.93.57,1.9.67"/>
    <path class="cls-2" d="M254.89,139.38c-1.32.69-2.8,1.22-4.41,1.6-1.61.38-3.16.55-4.65.55-3.72,0-6.76-1.13-9.11-3.4-2.33-2.26-3.52-5.23-3.52-8.9,0-3.31,1.1-6.02,3.29-8.15s4.94-3.19,8.22-3.19c1.42,0,2.76.24,4.03.74,1.25.5,2.37,1.2,3.34,2.13l.43.39c.84.84,1.51,1.37,1.99,1.58-.39,2.04-1.06,3.6-2.01,4.7-.94,1.1-2.5,2.04-4.7,2.83l-8.34,3.05c.33.79.7,1.51,1.17,2.16.46.65,1.03,1.23,1.73,1.77,1.37.91,2.97,1.36,4.77,1.36.79,0,1.82-.12,3.05-.36,1.08-.26,1.87-.39,2.38-.39.45,0,.84.12,1.18.36s.72.63,1.11,1.18M248.94,124.18c0-.94-.41-1.8-1.23-2.54-.87-.72-1.89-1.08-3.05-1.08-1.8,0-3.29.74-4.51,2.2-1.2,1.46-1.8,3.31-1.8,5.54v1.03l.33,1.2,6.26-2.3c1.27-.43,2.25-.99,2.95-1.7.7-.72,1.05-1.49,1.05-2.35"/>
    <path class="cls-2" d="M280.63,109.82c-.14.34-.27.7-.41,1.06-.14.38-.27.86-.41,1.44-.14.6-.21,1.29-.21,2.08v24.17l.21,1.17c.1.39.19.63.26.74.05.1.19.31.41.62h-.93c-1.75,0-3.04-.19-3.81-.58-.79-.38-1.18-1.05-1.18-2.01-.94.94-1.97,1.66-3.09,2.14-.1.05-.39.14-.87.27-.48.14-.91.22-1.29.29s-.7.1-.99.12c-.27,0-.5.02-.65.02-2.98,0-5.4-1.06-7.26-3.19-1.85-2.13-2.8-5.01-2.8-8.63s.91-6.3,2.71-8.4c1.82-2.11,4.19-3.17,7.12-3.17,1.46,0,2.78.22,3.96.65,1.18.43,2.23,1.13,3.14,2.08v-5.4c0-1.08-.21-1.89-.6-2.42-.45-.48-1.13-.72-2.02-.72.24-.91.58-1.53,1.03-1.87.45-.34,1.25-.51,2.42-.51h5.23l.03.07ZM274.68,131.2v-2.66c0-2.38-.53-4.25-1.6-5.63-.55-.77-1.15-1.32-1.78-1.66-.72-.29-1.51-.43-2.38-.43-1.87,0-3.33.82-4.32,2.45-1.01,1.65-1.51,3.93-1.51,6.86,0,2.68.51,4.75,1.53,6.23s2.47,2.23,4.34,2.23c1.66,0,3.04-.65,4.12-1.97,1.06-1.3,1.61-3.12,1.61-5.42"/>
    <path class="cls-2" d="M295.63,138.38c-.38,1.05-.79,1.77-1.27,2.18-.5.34-1.3.51-2.42.51h-4.84l.43-.79.33-1.3c.14-.67.21-1.42.21-2.3v-12.62c0-1.13-.19-1.92-.55-2.33-.34-.5-.98-.75-1.9-.75.43-1.11.87-1.84,1.36-2.16s1.2-.5,2.18-.5h4.99l-.36.75-.39,1.34c-.1.5-.17.94-.17,1.34s-.02.72-.02.94v12.59c0,1.13.17,1.92.51,2.37.45.48,1.1.72,1.94.72M294.96,110.29l-1.06,2.66c-.24.53-.62.94-1.15,1.23-.53.24-1.23.36-2.11.36h-3.33l1.15-2.66c.19-.5.55-.89,1.1-1.17.55-.27,1.27-.41,2.16-.41h3.26l-.02-.02Z"/>
    <path class="cls-2" d="M322.13,138.5c-.38.98-.72,1.63-1.03,1.92-.31.31-.86.51-1.63.65h-.24l-.43.03h-1.6l-.84.1-1.42.29.15-1.06v-1.75c-.91.91-1.94,1.61-3.09,2.13-1.18.46-2.49.7-3.89.7-2.54,0-4.6-.79-6.19-2.37-1.58-1.58-2.38-3.58-2.38-6.05s.82-4.56,2.5-6.07c1.66-1.51,3.89-2.26,6.71-2.26,1.22,0,2.33.22,3.38.67,1.01.39,1.92,1.01,2.74,1.87v-.43l.12-.72c0-1.94-.58-3.36-1.73-4.31-1.15-.94-2.93-1.41-5.33-1.41h-1.44l-1.87.17-2.92.63c.55-1.37,1.27-2.28,2.13-2.71.86-.43,2.59-.65,5.18-.65,3.81,0,6.55.77,8.25,2.3,1.7,1.53,2.54,4.05,2.54,7.53v7.94c0,1.22.17,1.99.51,2.33s.94.51,1.82.51M314.99,132.91c0-1.65-.46-2.95-1.39-3.93-.84-.94-2.06-1.42-3.65-1.42s-2.78.5-3.72,1.49c-.96.99-1.42,2.32-1.42,3.95s.5,3.04,1.49,4.08c.99,1.06,2.23,1.6,3.7,1.6s2.71-.5,3.64-1.51c.91-1.01,1.37-2.42,1.37-4.25"/>
  </g>
</svg>