<?xml version="1.0" encoding="UTF-8"?>
<svg id="Layer_1" data-name="Layer 1" xmlns="http://www.w3.org/2000/svg" viewBox="0 0 72 22.92">
  <defs>
    <style>
      .cls-1 {
        fill: #fff;
      }
    </style>
  </defs>
  <g>
    <g>
      <path class="cls-1" d="M55.13,6.53c-.43-.18-.92-.45-1.37-.76-.25-.17-.5-.36-.72-.55-.25-.21-.48-.42-.68-.64-.47-.5-.82-1.01-1.04-1.53-.26-.6-.33-1.21-.22-1.79.03-.14.08-.27.17-.39.08-.11.18-.21.3-.3.12-.09.25-.15.38-.2.14-.05.29-.08.43-.08.18,0,.34.04.49.12.16.09.29.21.4.38.08.13.14.29.18.52.04.18.06.38.08.58.02.19.05.4.08.57.07.34.18.69.3,1.04.12.32.26.65.43.98.28.54.62,1.1,1.06,1.71l.47.66-.74-.31Z"/>
      <path class="cls-1" d="M64.82,20.96c-.49,0-.97-.14-1.28-.26-.39-.14-.75-.33-.99-.52-.75-.58-1.41-1.64-1.99-2.57-.13-.21-.25-.4-.37-.58-.06-.1-.13-.21-.21-.34-.27-.43-.63-1.02-1.03-1.49-.21-.25-.41-.44-.59-.57-.19-.14-.36-.2-.5-.2-.02,0-.04,0-.07,0-.11.02-.19.06-.25.15-.13.19-.18.55-.13,1.08.04.51.16,1.1.27,1.68.08.41.16.81.21,1.16.06.41.06.71.02.92-.09.43-.3.79-.62,1.04-.15.11-.31.2-.5.26-.18.06-.36.08-.55.08-.22,0-.43-.04-.64-.11-.21-.08-.41-.19-.58-.33-.18-.15-.33-.33-.44-.54-.12-.22-.19-.47-.23-.74-.04-.35-.04-.69,0-1.04.04-.31.11-.62.21-.96.19-.61.47-1.19.74-1.74l.02-.04c.19-.4.45-.78.7-1.15.21-.3.4-.59.56-.88.17-.31.27-.59.3-.84.04-.3.02-.58-.08-.84-.09-.24-.23-.45-.43-.65-.19-.18-.42-.34-.69-.47-.26-.12-.54-.21-.84-.26-.2-.03-.43-.05-.71-.05s-.58.02-.88.03h-.02c-.3.02-.64.04-.97.04-.18,0-.35,0-.5-.02-.73-.05-1.79-.2-2.65-.59-.42-.19-.75-.42-.99-.69-.28-.31-.44-.67-.47-1.07-.05-.6.08-1.07.4-1.42.36-.39.92-.58,1.69-.58.82,0,1.7.22,2.29.41.7.22,1.39.53,1.86.81.07.04.16.11.29.2.27.19.68.48,1.12.73.5.28.91.42,1.22.42.17,0,.31-.04.42-.13.12-.1.22-.28.27-.51.17-.7-.08-1.09-.37-1.55-.12-.19-.24-.39-.33-.61-.14-.33-.22-.69-.24-1.01-.02-.37.04-.67.18-.88.07-.1.16-.19.26-.25.11-.06.23-.09.37-.09h.05c.21.01.39.09.52.24.11.12.19.29.25.5.1.36.12.82.14,1.3.02.53.05,1.07.18,1.46.06.19.15.33.25.42.11.1.26.14.44.14h0c.05,0,.1,0,.16,0,.14-.02.25-.08.33-.19.09-.12.16-.29.21-.52.1-.47.1-1.11.1-1.74,0-.68,0-1.39.13-1.94.08-.32.19-.56.34-.74.19-.21.43-.33.73-.36.04,0,.07,0,.11,0,.18,0,.35.03.49.1.14.06.26.16.35.28.19.25.28.61.27,1.07,0,.43-.1.86-.18,1.15-.13.47-.34.92-.48,1.22-.06.12-.12.23-.17.35-.26.52-.53,1.06-.63,1.62-.03.15-.04.3-.03.45,0,.15.03.3.08.43.05.14.11.25.19.32.11.1.22.15.35.15.06,0,.13,0,.2-.03.42-.1.73-.24,1-.44.3-.23.55-.52.76-.77.1-.12.21-.29.32-.47.2-.32.44-.67.72-.96.16-.17.33-.29.5-.38.2-.1.41-.16.63-.16s.43.05.65.15c.41.19.65.52.71.96.03.22,0,.46-.05.73-.06.23-.14.46-.26.7-.21.42-.49.81-.74,1.02-.28.23-.88.46-1.64.74-.72.27-1.53.58-2.13.92-.31.18-.54.35-.68.52-.14.16-.19.31-.17.46.02.14.08.24.17.3s.23.09.4.09c.21,0,.47-.04.79-.13.32-.09.65-.21.91-.3.1-.04.2-.08.29-.11.58-.22.95-.36,1.2-.36.04,0,.07,0,.1,0,.2.04.38.12.54.24.15.11.27.26.36.43.11.2.18.44.19.68.01.25-.03.49-.12.71-.08.18-.19.33-.33.45-.13.11-.29.19-.48.26-.3.1-.67.15-1.17.15-.28,0-.58-.01-.86-.03h0c-.29-.01-.56-.03-.82-.03-.45,0-.76.04-.99.13-.12.05-.21.1-.28.18-.07.08-.12.17-.14.29-.04.18-.05.35-.04.51,0,.14.04.27.1.39.1.22.27.41.53.57.51.33,1.25.5,1.91.66.31.07.6.14.86.22.44.14.92.38,1.3.65.23.17.43.34.58.52.18.21.3.44.35.66s.04.45-.03.67c-.08.23-.23.45-.44.66-.14.14-.32.25-.53.31-.18.06-.39.09-.61.09h0Z"/>
      <path class="cls-1" d="M49.59,18.32s-.08,0-.12,0c-.19-.01-.37-.07-.51-.16-.14-.09-.25-.21-.34-.36-.1-.18-.18-.4-.21-.66-.03-.22-.03-.46,0-.72.04-.45.16-.93.32-1.29.17-.38.43-.75.79-1.12.31-.32.69-.64,1.13-.94.39-.27.81-.51,1.25-.74.4-.2.8-.38,1.18-.51l.63-.22h.03c-1.35,1.01-1.84,2.64-2.17,3.95-.08.3-.16.62-.25.92-.11.35-.22.64-.35.87-.16.3-.33.52-.54.68-.24.19-.52.29-.83.29h0Z"/>
      <path class="cls-1" d="M59.33,22.63c-.28,0-.56-.07-.77-.2-.12-.07-.22-.16-.3-.26-.09-.11-.14-.24-.17-.37-.05-.27-.01-.53.11-.8.1-.22.25-.43.4-.63.22-.31.43-.67.48-1.06.03-.2,0-.41-.05-.61-.01-.05-.1-.39-.19-.38.54-.07,1.11.29,1.42.71.12.17.23.36.31.57.08.2.14.42.19.64.04.21.06.43.06.64,0,.22-.03.42-.08.61-.11.43-.33.75-.64.94-.22.13-.49.2-.78.2h0Z"/>
      <path class="cls-1" d="M69.47,7.75c-.07,0-.13,0-.2-.01-.4-.04-.75-.25-1.05-.64-.25-.32-.46-.73-.66-1.13-.2-.4-.41-.81-.66-1.14-.13-.17-.26-.29-.41-.39-.63-.43-1.29-.46-2.04-.28-.03,0-.3.1-.32.12.14-.2.36-.37.56-.51.67-.5,1.46-.73,2.29-.73.44,0,.9.06,1.35.18.44.12.85.28,1.23.49.81.46,1.34,1.08,1.48,1.74.07.33.08.65.02.95-.06.29-.17.54-.34.75-.15.19-.33.33-.55.43-.21.1-.45.15-.69.15h0Z"/>
    </g>
    <path class="cls-1" d="M68.48,19.87c-.32,0-.6-.17-.78-.48-.13-.22-.22-.45-.27-.72-.05-.23-.06-.46-.08-.68-.02-.32-.04-.63-.16-.91-.06-.15-.14-.28-.25-.4-.12-.14-.28-.28-.48-.4l-.45-.28c.77-.2,1.52-.28,2.26.08.37.18.71.43.97.74.44.51.64,1.1.56,1.68-.05.37-.21.71-.46.98-.12.13-.25.23-.39.3-.15.08-.31.12-.46.12h0Z"/>
  </g>
  <g>
    <path class="cls-1" d="M6.77,12.97c0,.58-.26,1.07-.77,1.46-.52.39-1.19.58-2.03.58-.56,0-1.11-.09-1.64-.28l-.75-.36c-.22-.12-.45-.28-.67-.48.09-.28.24-.51.45-.68l.36-.2c.05-.03.14-.06.27-.1.13-.04.23-.07.3-.09v.12c0,.35.15.64.45.87.3.22.68.34,1.14.34.36,0,.66-.08.91-.25.21-.16.33-.39.36-.68,0-.37-.4-.87-1.19-1.5l-.04-.03-.44-.35c-1.39-1.08-2.08-1.93-2.08-2.56,0-.51.21-.93.63-1.24.42-.31.96-.47,1.63-.47.28,0,.62.03,1.03.09.41.06.76.09,1.06.09l.37-.03.37-.08c-.09.44-.22.73-.4.88s-.45.23-.8.23h-.32s-.49-.09-.49-.09l-.72-.09c-.24,0-.44.05-.6.16-.13.12-.2.27-.2.44,0,.3.42.74,1.27,1.32l.55.39c.18.13.39.3.64.51.11.09.22.18.33.27.26.23.45.44.59.63.29.37.44.76.44,1.17"/>
    <path class="cls-1" d="M16,10.93c0,1.25-.3,2.23-.9,2.94-.6.71-1.43,1.07-2.48,1.07-.49,0-.93-.08-1.32-.23s-.73-.38-1.04-.68v1.63c0,.44.06.72.19.84.09.09.19.15.29.19s.23.06.38.06c-.09.33-.22.55-.39.67-.14.11-.4.17-.79.17h-1.68l.16-.39.13-.41.06-.43v-7.91c0-.15,0-.27-.01-.35,0-.08-.03-.21-.05-.39-.05-.22-.12-.41-.21-.58h.16s.23-.01.23-.01c.55,0,.94.07,1.17.21.25.12.38.33.38.64v.08c.28-.34.62-.59,1.02-.76s.84-.25,1.32-.25c1.02,0,1.84.35,2.46,1.06.62.7.93,1.64.93,2.82M14.16,10.73c0-.83-.17-1.49-.52-1.98s-.82-.74-1.42-.74-1.07.23-1.42.69c-.35.46-.53,1.07-.53,1.84v.84c0,.78.17,1.42.52,1.9.35.48.81.72,1.39.72.62,0,1.11-.28,1.45-.84.35-.56.52-1.37.52-2.42"/>
    <path class="cls-1" d="M20.66,13.96c-.12.34-.27.58-.46.71-.19.13-.47.2-.84.2h-1.58l.15-.27.11-.44c.04-.22.07-.48.07-.77v-7.13c0-.38-.06-.65-.17-.79-.07-.08-.15-.14-.24-.18-.09-.04-.23-.06-.41-.06.13-.37.29-.6.45-.7.18-.12.45-.19.83-.19h1.59l-.12.25-.13.45c-.04.17-.06.32-.06.45,0,.13,0,.24,0,.32v7.1c0,.38.06.65.17.8.15.16.37.24.66.24"/>
    <path class="cls-1" d="M29.59,14c-.12.33-.24.55-.35.65-.11.1-.29.18-.55.22h-.23s-.53.01-.53.01l-.28.03-.48.1.05-.36v-.59c-.3.3-.65.54-1.04.71-.4.16-.84.23-1.31.23-.86,0-1.55-.27-2.08-.79-.53-.53-.8-1.21-.8-2.04s.28-1.54.84-2.04c.56-.51,1.31-.76,2.26-.76.41,0,.79.08,1.14.23.34.13.65.34.92.63v-.15l.04-.24c0-.65-.19-1.13-.58-1.45s-.99-.48-1.79-.48h-.48l-.63.06-.98.21c.19-.46.42-.77.71-.91s.87-.22,1.74-.22c1.28,0,2.21.26,2.78.77.57.52.86,1.36.86,2.54v2.67c0,.41.06.67.17.79.11.12.32.17.61.17M27.18,12.12c0-.55-.16-.99-.47-1.32-.29-.32-.69-.48-1.23-.48s-.94.17-1.25.5c-.32.33-.48.78-.48,1.33s.17,1.02.5,1.38c.33.36.75.53,1.25.53s.91-.17,1.22-.51c.31-.34.46-.81.46-1.43"/>
    <path class="cls-1" d="M36.45,12.97c0,.58-.26,1.07-.77,1.46-.52.39-1.19.58-2.03.58-.56,0-1.11-.09-1.64-.28l-.75-.36c-.22-.12-.45-.28-.67-.48.09-.28.24-.51.45-.68l.36-.2c.05-.03.14-.06.27-.1.13-.04.23-.07.3-.09v.12c0,.35.15.64.45.87.3.22.68.34,1.14.34.36,0,.66-.08.91-.25.21-.16.33-.39.36-.68,0-.37-.4-.87-1.19-1.5l-.04-.03-.44-.35c-1.39-1.08-2.08-1.93-2.08-2.56,0-.51.21-.93.63-1.24.42-.31.96-.47,1.63-.47.28,0,.62.03,1.03.09.41.06.76.09,1.06.09l.38-.03.37-.08c-.09.44-.22.73-.4.88s-.45.23-.8.23h-.32s-.49-.09-.49-.09l-.72-.09c-.24,0-.44.05-.6.16-.13.12-.2.27-.2.44,0,.3.42.74,1.27,1.32l.55.39c.18.13.39.3.64.51.11.09.22.18.33.27.26.23.45.44.59.63.29.37.44.76.44,1.17"/>
    <path class="cls-1" d="M45.72,13.96c-.11.35-.25.59-.43.72s-.47.19-.88.19h-1.59c.13-.2.24-.44.3-.71l.06-.4v-4.06c0-.58-.12-1.01-.38-1.28-.23-.29-.6-.43-1.09-.43-.55,0-.96.16-1.23.48-.27.32-.4.8-.4,1.43v3.03c0,.35.06.61.19.79.14.17.37.25.67.25-.13.36-.29.59-.46.71s-.46.18-.85.18h-1.58c.12-.19.2-.4.26-.66l.07-.4v-7.56c0-.35-.07-.61-.2-.79-.15-.16-.37-.24-.66-.24.12-.32.27-.55.45-.68.18-.13.43-.2.76-.2h1.68c-.11.19-.19.4-.24.64-.06.22-.09.5-.09.84v2.08c.26-.28.58-.49.96-.64.38-.15.76-.23,1.16-.23.95,0,1.64.24,2.06.72.42.48.63,1.26.63,2.35v2.89c0,.38.06.64.17.77.11.13.33.2.66.2"/>
    <path class="cls-1" d="M15.63,18.58c0,.52-.14.94-.41,1.24s-.65.45-1.13.45-.86-.15-1.13-.44c-.14-.15-.24-.33-.31-.53s-.1-.44-.1-.71c0-.53.14-.94.41-1.24.28-.3.65-.44,1.13-.44s.85.15,1.13.44c.28.29.41.71.41,1.24M14.84,18.58c0-.43-.06-.75-.19-.96s-.31-.32-.56-.32-.43.11-.56.33c-.13.22-.19.54-.19.95s.06.75.19.96c.13.21.31.31.56.31s.43-.11.57-.32c.06-.1.11-.24.14-.4.01-.08.03-.17.03-.25,0-.09.01-.19.01-.3"/>
    <path class="cls-1" d="M21.45,19.82c-.05.15-.11.25-.19.3-.08.05-.2.08-.37.08h-.65c.04-.08.08-.18.11-.29.02-.11.03-.22.03-.34v-1.54c0-.25-.05-.43-.14-.54-.1-.11-.24-.17-.44-.17-.22,0-.39.06-.5.19-.1.13-.15.33-.15.6v1.47c0,.06.03.11.06.15.06.06.15.09.28.1-.05.15-.11.25-.18.3-.07.05-.18.08-.34.08h-.66c.05-.08.08-.17.1-.28.02-.11.03-.22.03-.34v-1.55c0-.25-.05-.43-.14-.54-.09-.12-.23-.18-.43-.18-.23,0-.4.07-.5.19-.11.13-.16.33-.16.6v1.28c0,.17.03.28.08.34.05.06.15.1.27.1-.06.15-.12.26-.19.31s-.19.08-.35.08h-.65l.06-.12.05-.14.02-.18v-2.06c0-.13-.02-.22-.07-.28l-.07-.04c-.05-.02-.12-.03-.2-.03.04-.16.1-.26.16-.31.06-.05.16-.08.3-.08h.36s.18-.06.18-.06l-.03.41c.12-.14.26-.24.42-.3.14-.07.32-.11.52-.11s.39.04.55.11c.16.08.29.19.39.33.11-.13.25-.24.43-.32.18-.08.37-.12.57-.12.38,0,.65.1.82.3s.26.52.26.96v1.25c0,.16.03.26.08.31.04.05.13.08.27.1"/>
    <path class="cls-1" d="M25.39,19.81c-.05.16-.1.26-.17.31s-.17.07-.32.07h-.73c.05-.08.09-.17.11-.28.02-.11.03-.23.03-.36v-1.54c0-.24-.05-.43-.15-.54-.1-.12-.26-.18-.46-.18-.23,0-.4.07-.52.2-.11.13-.17.33-.17.61v1.28c0,.15.02.27.07.34.03.03.07.05.11.07.05.02.1.03.16.03-.05.15-.11.25-.18.3-.07.05-.17.08-.32.08h-.72c.04-.07.08-.16.1-.28l.02-.11.02-.24v-1.87c0-.13-.02-.22-.07-.28l-.07-.04c-.05-.02-.12-.03-.2-.03.04-.15.1-.26.16-.31.06-.05.17-.08.33-.08h.33s.21-.06.21-.06l-.04.16v.24c.12-.13.25-.23.41-.3.16-.07.35-.1.56-.1.4,0,.68.1.86.31.18.21.26.53.26.98v1.22c0,.17.02.28.07.32.05.06.14.09.28.09"/>
    <path class="cls-1" d="M27.29,19.81c-.05.15-.11.25-.18.31-.07.05-.19.07-.34.07h-.69l.06-.11.04-.19c.02-.1.03-.2.03-.33v-1.79c0-.16-.03-.27-.08-.33-.05-.07-.14-.11-.27-.11.06-.16.12-.26.19-.31s.17-.07.31-.07h.71l-.05.11-.06.19c-.01.07-.02.13-.02.19s0,.1,0,.13v1.79c0,.16.02.27.07.34.06.07.16.1.28.1M27.2,15.82l-.15.38c-.03.08-.09.13-.16.18-.08.03-.18.05-.3.05h-.47l.16-.38c.03-.07.08-.13.16-.17s.18-.06.31-.06h.46,0Z"/>
    <path class="cls-1" d="M33.14,19.82c-.05.15-.11.25-.19.3-.08.05-.2.08-.37.08h-.65c.04-.08.08-.18.11-.29.02-.11.03-.22.03-.34v-1.54c0-.25-.05-.43-.14-.54-.1-.11-.24-.17-.44-.17-.22,0-.39.06-.5.19-.1.13-.15.33-.15.6v1.47c0,.06.03.11.06.15.06.06.15.09.28.1-.05.15-.11.25-.18.3-.07.05-.18.08-.34.08h-.66c.04-.08.08-.17.1-.28.02-.11.03-.22.03-.34v-1.55c0-.25-.05-.43-.14-.54-.09-.12-.23-.18-.43-.18-.23,0-.4.07-.5.19-.11.13-.16.33-.16.6v1.28c0,.17.03.28.08.34.05.06.15.1.27.1-.06.15-.12.26-.19.31s-.19.08-.35.08h-.65l.06-.12.05-.14.02-.18v-2.06c0-.13-.02-.22-.07-.28l-.07-.04c-.05-.02-.12-.03-.2-.03.05-.16.1-.26.16-.31.06-.05.16-.08.29-.08h.36s.18-.06.18-.06l-.03.41c.12-.14.26-.24.42-.3.14-.07.32-.11.52-.11s.39.04.55.11c.16.08.29.19.39.33.11-.13.25-.24.43-.32s.37-.12.57-.12c.38,0,.65.1.82.3s.26.52.26.96v1.25c0,.16.03.26.08.31.04.05.13.08.27.1"/>
    <path class="cls-1" d="M36.69,19.95c-.19.1-.4.17-.63.23s-.45.08-.66.08c-.53,0-.96-.16-1.29-.48-.33-.32-.5-.74-.5-1.26,0-.47.16-.86.47-1.16s.7-.45,1.17-.45c.2,0,.39.03.57.1.18.07.34.17.48.3l.06.06c.12.12.21.19.28.22-.06.29-.15.51-.29.67s-.36.29-.67.4l-1.18.43c.05.11.1.21.17.31.07.09.15.18.25.25.19.13.42.19.68.19.11,0,.26-.02.43-.05.15-.04.27-.06.34-.06.06,0,.12.02.17.05s.1.09.16.17M35.85,17.8c0-.13-.06-.26-.18-.36-.12-.1-.27-.15-.43-.15-.26,0-.47.1-.64.31-.17.21-.26.47-.26.79v.15l.05.17.89-.33c.18-.06.32-.14.42-.24.1-.1.15-.21.15-.33"/>
    <path class="cls-1" d="M40.35,15.76s-.04.1-.06.15c-.02.05-.04.12-.06.2-.02.09-.03.18-.03.29v3.43l.03.17c.01.06.03.09.04.1,0,.01.03.04.06.09h-.13c-.25,0-.43-.03-.54-.08-.11-.05-.17-.15-.17-.29-.13.13-.28.24-.44.3-.01,0-.06.02-.12.04s-.13.03-.18.04-.1.01-.14.02c-.04,0-.07,0-.09,0-.42,0-.77-.15-1.03-.45s-.4-.71-.4-1.23.13-.89.39-1.19c.26-.3.59-.45,1.01-.45.21,0,.39.03.56.09s.32.16.45.29v-.77c0-.15-.03-.27-.09-.34-.06-.07-.16-.1-.29-.1.03-.13.08-.22.15-.27.06-.05.18-.07.34-.07h.75ZM39.51,18.79v-.38c0-.34-.08-.6-.23-.8-.08-.11-.16-.19-.25-.24-.1-.04-.21-.06-.34-.06-.27,0-.47.12-.61.35-.14.23-.21.56-.21.97,0,.38.07.68.22.88s.35.32.62.32c.24,0,.43-.09.58-.28.15-.19.23-.44.23-.77"/>
    <path class="cls-1" d="M42.48,19.81c-.05.15-.11.25-.18.31-.07.05-.19.07-.34.07h-.69l.06-.11.05-.19c.02-.1.03-.2.03-.33v-1.79c0-.16-.03-.27-.08-.33-.05-.07-.14-.11-.27-.11.06-.16.12-.26.19-.31s.17-.07.31-.07h.71l-.05.11-.06.19c-.01.07-.02.13-.02.19s0,.1,0,.13v1.79c0,.16.02.27.07.34.06.07.16.1.28.1M42.39,15.82l-.15.38c-.03.08-.09.13-.16.18-.08.03-.18.05-.3.05h-.47l.16-.38c.03-.07.08-.13.16-.17.08-.04.18-.06.31-.06h.46,0Z"/>
    <path class="cls-1" d="M46.25,19.83c-.05.14-.1.23-.15.27-.04.04-.12.07-.23.09h-.1s-.23,0-.23,0h-.12s-.2.06-.2.06l.02-.15v-.25c-.13.13-.28.23-.44.3-.17.07-.35.1-.55.1-.36,0-.65-.11-.88-.34-.22-.22-.34-.51-.34-.86s.12-.65.36-.86c.24-.21.55-.32.95-.32.17,0,.33.03.48.1.14.06.27.14.39.27v-.06l.02-.1c0-.28-.08-.48-.25-.61s-.42-.2-.76-.2h-.2l-.27.02-.41.09c.08-.19.18-.32.3-.39s.37-.09.74-.09c.54,0,.93.11,1.17.33.24.22.36.58.36,1.07v1.13c0,.17.02.28.07.33s.13.07.26.07M45.23,19.04c0-.23-.07-.42-.2-.56-.12-.13-.29-.2-.52-.2s-.39.07-.53.21c-.14.14-.2.33-.2.56s.07.43.21.58c.14.15.32.23.53.23s.39-.07.52-.21c.13-.14.19-.34.19-.6"/>
  </g>
</svg>